# xmcd CD database file
#
# Track frame offsets:
#	150
#	24420
#	42242
#	59982
#	92545
#	114545
#	140005
#	159212
#	175055
#	192985
#	224425
#
# Disc length: 3487 seconds
#
# Revision: 0
# Processed by: cddbd v1.5PL3 Copyright (c) Steve Scherf et al.
# Submitted via: CDex 1.51
#
DISCID=9a0d9d0b
DTITLE=10cc - Live
DYEAR=1900
DGENRE=Rock
TTITLE0=The Second sitting for the last supper
TTITLE1=You've got a cold
TTITLE2=Honeymoon With B Troop
TTITLE3=Art For Arts Sake
TTITLE4=People In Love
TTITLE5=I'm Mandy Fly Me
TTITLE6=Marriage Bureau Rendezvous
TTITLE7=Good Morning Judge
TTITLE8=The Theings We Do For Love
TTITLE9=I'm not in love
TTITLE10=Modern Man Blues
EXTD=
EXTT0=
EXTT1=
EXTT2=
EXTT3=
EXTT4=
EXTT5=
EXTT6=
EXTT7=
EXTT8=
EXTT9=
EXTT10=
PLAYORDER=
